[img]http://img828.imageshack.us/img828/3326/114d20.jpg[/img]
[code]
Not.Another.Not.Another.Movie.2011.HDRip.XVID.AC3.HQ.Hive-CM8



Thx Hive

CM8 Doing It Right The First Time 


Source: HD-Stream with Stereo Audio


Encode:
presenting first the next HQ Version of a new movie.
Found another hd-stream/webhd-dl or similar with great quality and just stereo audio again.
Did the usual,sharpness,rgb,denoise.
There is a lot of nice cast in the movie.
enjoy

Video: 720x400 @bitrate 1800 2pass
Audio: English AC3 2.0 Stereo
Sample: yes included

 
http://www.imdb.com/title/tt1302019/


General
Complete name                    : Not.Another.Not.Another.Movie.2011.HDRip.XVID.AC3.HQ.Hive-CM8.avi
Format                           : AVI
Format/Info                      : Audio Video Interleave
File size                        : 1.38 GiB
Duration                         : 1h 39mn
Overall bit rate                 : 1 999 Kbps
Writing application              : Nandub v1.0rc2
Writing library                  : Nandub build 1853/release

Video
ID                               : 0
Format                           : MPEG-4 Visual
Format profile                   : Advanced Simple@L5
Format settings, BVOP            : 2
Format settings, QPel            : Yes
Format settings, GMC             : No warppoints
Format settings, Matrix          : Default (H.263)
Muxing mode                      : Packed bitstream
Codec ID                         : XVID
Codec ID/Hint                    : XviD
Duration                         : 1h 39mn
Bit rate                         : 1 798 Kbps
Width                            : 720 pixels
Height                           : 400 pixels
Display aspect ratio             : 16:9
Frame rate                       : 23.976 fps
Color space                      : YUV
Chroma subsampling               : 4:2:0
Bit depth                        : 8 bits
Scan type                        : Progressive
Compression mode                 : Lossy
Bits/(Pixel*Frame)               : 0.260
Stream size                      : 1.25 GiB (90%)
Writing library                  : XviD 1.2.1 (UTC 2008-12-04)

Audio
ID                               : 1
Format                           : AC-3
Format/Info                      : Audio Coding 3
Mode extension                   : CM (complete main)
Codec ID                         : 2000
Duration                         : 1h 39mn
Bit rate mode                    : Constant
Bit rate                         : 192 Kbps
Channel(s)                       : 2 channels
Channel positions                : Front: L R
Sampling rate                    : 48.0 KHz
Bit depth                        : 16 bits
Compression mode                 : Lossy
Stream size                      : 136 MiB (10%)
Alignment                        : Split accross interleaves
Interleave, duration             : 42 ms (1.00 video frame)
Interleave, preload duration     : 500 ms


Plot:
Follows a struggling movie studio that's willing to do anything to make a mint.
Even if it means ruining their reputation and running the movie industry into
the ground.


Cast:
Chevy Chase      ...    Max Storm
Burt Reynolds    ...    C.J. Waters
David Schultz    ...    Randy
Jennifer Sciole  ...    Amanda
Vinnie Jones     ...    Nancy
Michael Madsen   ...    Lester Storm
[/code]
Screens:
[img]http://img225.imageshack.us/img225/658/nnoonnoono.png[/img]
[img]http://img263.imageshack.us/img263/8113/94317125.png[/img]
[img]http://img41.imageshack.us/img41/9395/nnonoonnonoono.png[/img]
[img]http://img685.imageshack.us/img685/4720/nonono.png[/img]